nColumns=19
nRows=83
DataType=double
version=3
OpenSimVersion=4.1
endheader
time	ground_force_1_vx	ground_force_1_vy	ground_force_1_vz	ground_force_1_px	ground_force_1_py	ground_force_1_pz	ground_force_1_mx	ground_force_1_my	ground_force_1_mz	ground_force_2_vx	ground_force_2_vy	ground_force_2_vz	ground_force_2_px	ground_force_2_py	ground_force_2_pz	ground_force_2_mx	ground_force_2_my	ground_force_2_mz
0	-127.932	660.725	-27.3909	0.167356	0.006	-0.20644	0	-0.983708	0	0	0	0	0.753511	0	-0.249318	0	0	0
0.01	-128.812	669.327	-30.3175	0.170733	0.006	-0.205188	0	-0.784672	0	0	0	0	0.753511	0	-0.249318	0	0	0
0.02	-129.607	679.058	-32.9659	0.175038	0.006	-0.203669	0	-0.546434	0	0	0	0	0.753511	0	-0.249318	0	0	0
0.03	-130.23	689.675	-35.141	0.179593	0.006	-0.202154	0	-0.279048	0	0	0	0	0.753511	0	-0.249318	0	0	0
0.04	-130.584	700.793	-36.7032	0.184277	0.006	-0.20069	0	0.003533	0	0	0	0	0.753511	0	-0.249318	0	0	0
0.05	-130.582	711.899	-37.5927	0.18898	0.006	-0.19931	0	0.285431	0	0	0	0	0.753511	0	-0.249318	0	0	0
0.06	-130.146	722.413	-37.8449	0.193614	0.006	-0.198029	0	0.550822	0	0	0	0	0.753511	0	-0.249318	0	0	0
0.07	-129.225	731.749	-37.578	0.198117	0.006	-0.196847	0	0.786829	0	0	0	0	0.753511	0	-0.249318	0	0	0
0.08	-127.789	739.372	-36.9585	0.202451	0.006	-0.195749	0	0.985274	0	0	0	0	0.753511	0	-0.249318	0	0	0
0.09	-125.836	744.839	-36.159	0.206602	0.006	-0.194721	0	1.14234	0	0	0	0	0.753511	0	-0.249318	0	0	0
0.1	-123.378	747.839	-35.3203	0.210568	0.006	-0.193746	0	1.25711	0	0	0	0	0.753511	0	-0.249318	0	0	0
0.11	-120.443	748.221	-34.5278	0.21436	0.006	-0.192812	0	1.32971	0	0	0	0	0.753511	0	-0.249318	0	0	0
0.12	-117.067	745.998	-33.8052	0.217992	0.006	-0.191917	0	1.35987	0	0	0	0	0.753511	0	-0.249318	0	0	0
0.13	-113.295	741.346	-33.1216	0.221477	0.006	-0.191066	0	1.34653	0	0	0	0	0.753511	0	-0.249318	0	0	0
0.14	-109.184	734.579	-32.4108	0.224831	0.006	-0.190274	0	1.28828	0	0	0	0	0.753511	0	-0.249318	0	0	0
0.15	-104.801	726.129	-31.5985	0.228063	0.006	-0.189561	0	1.18418	0	0	0	0	0.753511	0	-0.249318	0	0	0
0.16	-100.22	716.509	-30.6279	0.231181	0.006	-0.188953	0	1.03468	0	0	0	0	0.753511	0	-0.249318	0	0	0
0.17	-95.513	706.281	-29.4757	0.234184	0.006	-0.188477	0	0.842314	0	0	0	0	0.753511	0	-0.249318	0	0	0
0.18	-90.7528	696.014	-28.1535	0.237067	0.006	-0.188159	0	0.611587	0	0	0	0	0.753511	0	-0.249318	0	0	0
0.19	-86.0027	686.243	-26.6968	0.239817	0.006	-0.188023	0	0.348359	0	0	0	0	0.753511	0	-0.249318	0	0	0
0.2	-81.3141	677.452	-25.1452	0.242417	0.006	-0.188087	0	0.058994	0	0	0	0	0.753511	0	-0.249318	0	0	0
0.21	-76.7248	670.057	-23.5274	0.244844	0.006	-0.188365	0	-0.250502	0	0	0	0	0.753511	0	-0.249318	0	0	0
0.22	-72.259	664.403	-21.8566	0.247078	0.006	-0.18886	0	-0.574786	0	0	0	0	0.753511	0	-0.249318	0	0	0
0.23	-67.9296	660.753	-20.1374	0.2491	0.006	-0.189563	0	-0.908898	0	0	0	0	0.753511	0	-0.249318	0	0	0
0.24	-63.7419	659.262	-18.3751	0.2509	0.006	-0.190449	0	-1.2479	0	0	0	0	0.753511	0	-0.249318	0	0	0
0.25	-59.695	659.97	-16.5837	0.252483	0.006	-0.191477	0	-1.58654	0	0	0	0	0.753511	0	-0.249318	0	0	0
0.26	-55.7817	662.792	-14.795	0.253868	0.006	-0.192595	0	-1.91884	0	0	0	0	0.753511	0	-0.249318	0	0	0
0.27	-51.9903	667.535	-13.0583	0.25509	0.006	-0.193741	0	-2.2381	0	0	0	0	0.753511	0	-0.249318	0	0	0
0.28	-48.3083	673.911	-11.4359	0.256199	0.006	-0.194852	0	-2.53743	0	0	0	0	0.753511	0	-0.249318	0	0	0
0.29	-44.7268	681.564	-9.99492	0.25725	0.006	-0.19587	0	-2.81049	0	0	0	0	0.753511	0	-0.249318	0	0	0
0.3	-41.2391	690.09	-8.79767	0.258303	0.006	-0.196745	0	-3.05231	0	0	0	0	0.753511	0	-0.249318	0	0	0
0.31	-37.8376	699.064	-7.89172	0.25941	0.006	-0.197441	0	-3.25982	0	0	0	0	0.753511	0	-0.249318	0	0	0
0.32	-34.5133	708.08	-7.30545	0.260615	0.006	-0.197933	0	-3.43207	0	0	0	0	0.753511	0	-0.249318	0	0	0
0.33	-31.2557	716.787	-7.0485	0.261945	0.006	-0.198209	0	-3.57	0	0	0	0	0.753511	0	-0.249318	0	0	0
0.34	-28.0529	724.921	-7.11302	0.263417	0.006	-0.198267	0	-3.67622	0	0	0	0	0.753511	0	-0.249318	0	0	0
0.35	-24.8976	732.307	-7.47598	0.265037	0.006	-0.198113	0	-3.7545	0	0	0	0	0.753511	0	-0.249318	0	0	0
0.36	-21.7894	738.843	-8.10387	0.266807	0.006	-0.197761	0	-3.80921	0	0	0	0	0.753511	0	-0.249318	0	0	0
0.37	-18.7335	744.48	-8.95921	0.268725	0.006	-0.197228	0	-3.84457	0	0	0	0	0.753511	0	-0.249318	0	0	0
0.38	-15.7371	749.206	-10.0041	0.270787	0.006	-0.196537	0	-3.86424	0	0	0	0	0.753511	0	-0.249318	0	0	0
0.39	-12.8061	753.043	-11.2008	0.272988	0.006	-0.195713	0	-3.87103	0	0	0	0	0.753511	0	-0.249318	0	0	0
0.4	-9.94581	756.052	-12.5115	0.275323	0.006	-0.194786	0	-3.86691	0	0	0	0	0.753511	0	-0.249318	0	0	0
0.41	-7.15981	758.333	-13.8978	0.277787	0.006	-0.193787	0	-3.85334	0	0	0	0	0.753511	0	-0.249318	0	0	0
0.42	-4.44635	760.005	-15.3196	0.280375	0.006	-0.192751	0	-3.83188	0	0	0	0	0.753511	0	-0.249318	0	0	0
0.43	-1.79476	761.196	-16.7356	0.283082	0.006	-0.191712	0	-3.80467	0	0	0	0	0.753511	0	-0.249318	0	0	0
0.44	0.817251	762.036	-18.1061	0.285899	0.006	-0.190706	0	-3.77467	0	0	0	0	0.753511	0	-0.249318	0	0	0
0.45	3.42412	762.659	-19.3967	0.288813	0.006	-0.189762	0	-3.74554	0	0	0	0	0.753511	0	-0.249318	0	0	0
0.46	6.07128	763.203	-20.5812	0.291806	0.006	-0.188906	0	-3.72104	0	0	0	0	0.753511	0	-0.249318	0	0	0
0.47	8.81273	763.805	-21.6439	0.294856	0.006	-0.188155	0	-3.70455	0	0	0	0	0.753511	0	-0.249318	0	0	0
0.48	11.7088	764.595	-22.5817	0.29794	0.006	-0.187521	0	-3.69863	0	0	0	0	0.753511	0	-0.249318	0	0	0
0.49	14.8213	765.684	-23.4021	0.301032	0.006	-0.187006	0	-3.70481	0	0	0	0	0.753511	0	-0.249318	0	0	0
0.5	18.207	767.15	-24.1162	0.304112	0.006	-0.18661	0	-3.72365	0	0	0	0	0.753511	0	-0.249318	0	0	0
0.51	21.915	769.029	-24.731	0.307157	0.006	-0.186325	0	-3.75511	0	0	0	0	0.753511	0	-0.249318	0	0	0
0.52	25.986	771.309	-25.2455	0.310148	0.006	-0.186145	0	-3.79881	0	0	0	0	0.753511	0	-0.249318	0	0	0
0.53	30.4515	773.936	-25.6508	0.313065	0.006	-0.186058	0	-3.85377	0	0	0	0	0.753511	0	-0.249318	0	0	0
0.54	35.3308	776.81	-25.9312	0.315892	0.006	-0.186052	0	-3.91826	0	0	0	0	0.753511	0	-0.249318	0	0	0
0.55	40.628	779.783	-26.0647	0.318613	0.006	-0.186113	0	-3.98968	0	0	0	0	0.753511	0	-0.249318	0	0	0
0.56	46.3252	782.652	-26.0247	0.321217	0.006	-0.186228	0	-4.06477	0	0	0	0	0.753511	0	-0.249318	0	0	0
0.57	52.378	785.157	-25.7817	0.323698	0.006	-0.186381	0	-4.13995	0	0	0	0	0.753511	0	-0.249318	0	0	0
0.58	58.7136	786.982	-25.305	0.326052	0.006	-0.186558	0	-4.21149	0	0	0	0	0.753511	0	-0.249318	0	0	0
0.59	65.2306	787.753	-24.566	0.328282	0.006	-0.186743	0	-4.27539	0	0	0	0	0.753511	0	-0.249318	0	0	0
0.6	71.8002	787.037	-23.5414	0.330392	0.006	-0.186923	0	-4.32741	0	0	0	0	0.753511	0	-0.249318	0	0	0
0.61	78.2674	784.345	-22.217	0.332392	0.006	-0.187082	0	-4.36287	0	5.33068	22.1606	-5.14396	0.753511	0.006	-0.249318	0	0.738136	0
0.62	84.455	779.142	-20.5926	0.33429	0.006	-0.187207	0	-4.37662	0	4.92053	40.7451	-6.22594	0.794025	0.006	-0.263732	0	0.888011	0
0.63	90.1704	770.875	-18.6824	0.336096	0.006	-0.187287	0	-4.36322	0	3.83546	64.0471	-7.4672	0.814983	0.006	-0.270534	0	1.01286	0
0.64	95.2112	759.001	-16.5147	0.337823	0.006	-0.187309	0	-4.31731	0	1.87004	92.3226	-8.84167	0.827733	0.006	-0.274192	0	1.13691	0
0.65	99.3739	743.019	-14.1305	0.339484	0.006	-0.187263	0	-4.23395	0	-1.2026	125.561	-10.3021	0.836699	0.006	-0.276404	0	1.2648	0
0.66	102.463	722.508	-11.5839	0.341096	0.006	-0.187139	0	-4.10923	0	-5.61042	163.398	-11.7737	0.843693	0.006	-0.27785	0	1.3949	0
0.67	104.301	697.172	-8.94153	0.342679	0.006	-0.186931	0	-3.94093	0	-11.4865	205.157	-13.1419	0.849605	0.006	-0.278869	0	1.5235	0
0.68	104.743	666.886	-6.28054	0.344256	0.006	-0.18663	0	-3.72906	0	-18.7545	249.997	-14.2571	0.854912	0.006	-0.279661	0	1.64681	0
0.69	103.687	631.746	-3.68596	0.345857	0.006	-0.186233	0	-3.47624	0	-27.1477	297.016	-14.9531	0.859875	0.006	-0.280346	0	1.76085	0
0.7	101.089	592.102	-1.24441	0.347514	0.006	-0.185736	0	-3.18765	0	-36.3353	345.212	-15.0574	0.864637	0.006	-0.281003	0	1.86049	0
0.71	96.9779	548.548	0.965919	0.349264	0.006	-0.185141	0	-2.87095	0	-45.9868	393.439	-14.4185	0.869279	0.006	-0.281674	0	1.93871	0
0.72	91.4567	501.899	2.8814	0.351146	0.006	-0.184446	0	-2.53597	0	-55.7294	440.505	-12.9533	0.873843	0.006	-0.282384	0	1.98587	0
0.73	84.7052	453.128	4.45776	0.353201	0.006	-0.183655	0	-2.19405	0	-65.1469	485.316	-10.6885	0.878342	0.006	-0.283134	0	1.99004	0
0.74	76.9656	403.305	5.6723	0.355474	0.006	-0.182768	0	-1.85706	0	-73.8395	526.943	-7.75987	0.88277	0.006	-0.283915	0	1.93995	0
0.75	68.5278	353.52	6.5229	0.35801	0.006	-0.181785	0	-1.53611	0	-81.4565	564.68	-4.37486	0.887119	0.006	-0.284716	0	1.82965	0
0.76	59.7083	304.824	7.02565	0.36086	0.006	-0.180703	0	-1.24026	0	-87.7471	598.127	-0.762303	0.891394	0.006	-0.285526	0	1.66207	0
0.77	50.8251	258.17	7.21097	0.364087	0.006	-0.17951	0	-0.975888	0	-92.6021	627.195	2.85663	0.89561	0.006	-0.286335	0	1.44807	0
0.78	42.1704	214.371	7.11933	0.367772	0.006	-0.178182	0	-0.746485	0	-96.0192	652.035	6.27228	0.899785	0.006	-0.287137	0	1.20218	0
0.79	33.9921	174.077	6.79774	0.372042	0.006	-0.176673	0	-0.553217	0	-98.0631	672.92	9.29781	0.903938	0.006	-0.287921	0	0.93964	0
0.8	26.483	137.752	6.29713	0.377102	0.006	-0.174901	0	-0.395603	0	-98.8433	690.172	11.7931	0.908081	0.006	-0.288681	0	0.676261	0
0.81	19.78	105.68	5.66996	0.383315	0.006	-0.172719	0	-0.272284	0	-98.4951	704.128	13.6831	0.912225	0.006	-0.289411	0	0.427516	0
0.82	13.9648	77.9686	4.9667	0.391368	0.006	-0.169851	0	-0.182019	0	-97.1656	715.148	14.9612	0.916376	0.006	-0.290112	0	0.206408	0
